<svg width="300" height="80" viewBox="0 0 300 80" fill="none" xmlns="http://www.w3.org/2000/svg">
<path d="M106.918 22.6562H103.185C103.116 22.1733 102.977 21.7443 102.767 21.3693C102.557 20.9886 102.287 20.6648 101.957 20.3977C101.628 20.1307 101.247 19.9261 100.815 19.7841C100.389 19.642 99.9261 19.571 99.4261 19.571C98.5227 19.571 97.7358 19.7955 97.0653 20.2443C96.3949 20.6875 95.875 21.3352 95.5057 22.1875C95.1364 23.0341 94.9517 24.0625 94.9517 25.2727C94.9517 26.517 95.1364 27.5625 95.5057 28.4091C95.8807 29.2557 96.4034 29.8949 97.0739 30.3267C97.7443 30.7585 98.5199 30.9744 99.4006 30.9744C99.8949 30.9744 100.352 30.9091 100.773 30.7784C101.199 30.6477 101.577 30.4574 101.906 30.2074C102.236 29.9517 102.509 29.642 102.724 29.2784C102.946 28.9148 103.099 28.5 103.185 28.0341L106.918 28.0511C106.821 28.8523 106.58 29.625 106.193 30.3693C105.813 31.108 105.298 31.7699 104.651 32.3551C104.009 32.9347 103.241 33.3949 102.349 33.7358C101.463 34.071 100.46 34.2386 99.3409 34.2386C97.7841 34.2386 96.392 33.8864 95.1648 33.1818C93.9432 32.4773 92.9773 31.4574 92.267 30.1222C91.5625 28.7869 91.2102 27.1705 91.2102 25.2727C91.2102 23.3693 91.5682 21.75 92.2841 20.4148C93 19.0795 93.9716 18.0625 95.1989 17.3636C96.4261 16.6591 97.8068 16.3068 99.3409 16.3068C100.352 16.3068 101.29 16.4489 102.153 16.733C103.023 17.017 103.793 17.4318 104.463 17.9773C105.134 18.517 105.679 19.179 106.099 19.9631C106.526 20.7472 106.798 21.6449 106.918 22.6562ZM125.604 25.2727C125.604 27.1761 125.243 28.7955 124.521 30.1307C123.805 31.4659 122.828 32.4858 121.589 33.1903C120.357 33.8892 118.97 34.2386 117.43 34.2386C115.879 34.2386 114.487 33.8864 113.254 33.1818C112.021 32.4773 111.047 31.4574 110.331 30.1222C109.615 28.7869 109.257 27.1705 109.257 25.2727C109.257 23.3693 109.615 21.75 110.331 20.4148C111.047 19.0795 112.021 18.0625 113.254 17.3636C114.487 16.6591 115.879 16.3068 117.43 16.3068C118.97 16.3068 120.357 16.6591 121.589 17.3636C122.828 18.0625 123.805 19.0795 124.521 20.4148C125.243 21.75 125.604 23.3693 125.604 25.2727ZM121.862 25.2727C121.862 24.0398 121.678 23 121.308 22.1534C120.945 21.3068 120.43 20.6648 119.766 20.2273C119.101 19.7898 118.322 19.571 117.43 19.571C116.538 19.571 115.76 19.7898 115.095 20.2273C114.43 20.6648 113.913 21.3068 113.544 22.1534C113.18 23 112.999 24.0398 112.999 25.2727C112.999 26.5057 113.18 27.5455 113.544 28.392C113.913 29.2386 114.43 29.8807 115.095 30.3182C115.76 30.7557 116.538 30.9744 117.43 30.9744C118.322 30.9744 119.101 30.7557 119.766 30.3182C120.43 29.8807 120.945 29.2386 121.308 28.392C121.678 27.5455 121.862 26.5057 121.862 25.2727ZM142.937 16.5455V34H139.749L132.156 23.0142H132.028V34H128.337V16.5455H131.576L139.11 27.5227H139.263V16.5455H142.937ZM145.321 19.5881V16.5455H159.656V19.5881H154.312V34H150.665V19.5881H145.321ZM162.893 34H158.938L164.964 16.5455H169.719L175.737 34H171.782L167.41 20.5341H167.273L162.893 34ZM162.646 27.1392H171.987V30.0199H162.646V27.1392ZM177.837 34V16.5455H184.826C186.11 16.5455 187.181 16.7358 188.039 17.1165C188.897 17.4972 189.542 18.0256 189.974 18.7017C190.406 19.3722 190.621 20.1449 190.621 21.0199C190.621 21.7017 190.485 22.3011 190.212 22.8182C189.94 23.3295 189.565 23.75 189.087 24.0795C188.616 24.4034 188.076 24.6335 187.468 24.7699V24.9403C188.133 24.9687 188.755 25.1562 189.335 25.5028C189.92 25.8494 190.394 26.3352 190.758 26.9602C191.121 27.5795 191.303 28.3182 191.303 29.1761C191.303 30.1023 191.073 30.929 190.613 31.6562C190.158 32.3778 189.485 32.9489 188.593 33.3693C187.701 33.7898 186.602 34 185.295 34H177.837ZM181.528 30.983H184.536C185.565 30.983 186.315 30.7869 186.786 30.3949C187.258 29.9972 187.494 29.4687 187.494 28.8097C187.494 28.3267 187.377 27.9006 187.144 27.5312C186.911 27.1619 186.579 26.8722 186.147 26.6619C185.721 26.4517 185.212 26.3466 184.621 26.3466H181.528V30.983ZM181.528 23.8494H184.263C184.769 23.8494 185.218 23.7614 185.61 23.5852C186.008 23.4034 186.32 23.1477 186.548 22.8182C186.781 22.4886 186.897 22.0938 186.897 21.6335C186.897 21.0028 186.673 20.4943 186.224 20.108C185.781 19.7216 185.15 19.5284 184.332 19.5284H181.528V23.8494ZM197.395 16.5455V34H193.705V16.5455H197.395ZM200.431 34V16.5455H204.121V30.9574H211.604V34H200.431ZM217.739 16.5455V34H214.048V16.5455H217.739ZM220.587 34V31.8097L229.298 19.5881H220.57V16.5455H233.934V18.7358L225.215 30.9574H233.951V34H220.587ZM239.791 34H235.837L241.862 16.5455H246.618L252.635 34H248.68L244.308 20.5341H244.172L239.791 34ZM239.544 27.1392H248.885V30.0199H239.544V27.1392Z" fill="white"/>
<path d="M98.0795 46H97.0227C96.9602 45.696 96.8509 45.429 96.6946 45.1989C96.5412 44.9688 96.3537 44.7756 96.1321 44.6193C95.9134 44.4602 95.6705 44.3409 95.4034 44.2614C95.1364 44.1818 94.858 44.142 94.5682 44.142C94.0398 44.142 93.5611 44.2756 93.1321 44.5426C92.706 44.8097 92.3665 45.2031 92.1136 45.723C91.8636 46.2429 91.7386 46.8807 91.7386 47.6364C91.7386 48.392 91.8636 49.0298 92.1136 49.5497C92.3665 50.0696 92.706 50.4631 93.1321 50.7301C93.5611 50.9972 94.0398 51.1307 94.5682 51.1307C94.858 51.1307 95.1364 51.0909 95.4034 51.0114C95.6705 50.9318 95.9134 50.8139 96.1321 50.6577C96.3537 50.4986 96.5412 50.304 96.6946 50.0739C96.8509 49.8409 96.9602 49.5739 97.0227 49.2727H98.0795C98 49.7187 97.8551 50.1179 97.6449 50.4702C97.4347 50.8224 97.1733 51.1222 96.8608 51.3693C96.5483 51.6136 96.1974 51.7997 95.8082 51.9276C95.4219 52.0554 95.0085 52.1193 94.5682 52.1193C93.8239 52.1193 93.1619 51.9375 92.5824 51.5739C92.0028 51.2102 91.5469 50.6932 91.2145 50.0227C90.8821 49.3523 90.7159 48.5568 90.7159 47.6364C90.7159 46.7159 90.8821 45.9205 91.2145 45.25C91.5469 44.5795 92.0028 44.0625 92.5824 43.6989C93.1619 43.3352 93.8239 43.1534 94.5682 43.1534C95.0085 43.1534 95.4219 43.2173 95.8082 43.3452C96.1974 43.473 96.5483 43.6605 96.8608 43.9077C97.1733 44.152 97.4347 44.4503 97.6449 44.8026C97.8551 45.152 98 45.5511 98.0795 46ZM102.31 52.1364C101.719 52.1364 101.201 51.9957 100.755 51.7145C100.311 51.4332 99.9648 51.0398 99.7148 50.5341C99.4677 50.0284 99.3441 49.4375 99.3441 48.7614C99.3441 48.0795 99.4677 47.4844 99.7148 46.9759C99.9648 46.4673 100.311 46.0724 100.755 45.7912C101.201 45.5099 101.719 45.3693 102.31 45.3693C102.901 45.3693 103.418 45.5099 103.861 45.7912C104.307 46.0724 104.654 46.4673 104.901 46.9759C105.151 47.4844 105.276 48.0795 105.276 48.7614C105.276 49.4375 105.151 50.0284 104.901 50.5341C104.654 51.0398 104.307 51.4332 103.861 51.7145C103.418 51.9957 102.901 52.1364 102.31 52.1364ZM102.31 51.233C102.759 51.233 103.128 51.1179 103.418 50.8878C103.708 50.6577 103.922 50.3551 104.061 49.9801C104.201 49.6051 104.27 49.1989 104.27 48.7614C104.27 48.3239 104.201 47.9162 104.061 47.5384C103.922 47.1605 103.708 46.8551 103.418 46.6222C103.128 46.3892 102.759 46.2727 102.31 46.2727C101.861 46.2727 101.492 46.3892 101.202 46.6222C100.912 46.8551 100.698 47.1605 100.559 47.5384C100.419 47.9162 100.35 48.3239 100.35 48.7614C100.35 49.1989 100.419 49.6051 100.559 49.9801C100.698 50.3551 100.912 50.6577 101.202 50.8878C101.492 51.1179 101.861 51.233 102.31 51.233ZM107.817 48.0625V52H106.811V45.4545H107.783V46.4773H107.868C108.021 46.1449 108.254 45.8778 108.567 45.6761C108.879 45.4716 109.283 45.3693 109.777 45.3693C110.22 45.3693 110.608 45.4602 110.94 45.642C111.273 45.821 111.531 46.0938 111.716 46.4602C111.901 46.8239 111.993 47.2841 111.993 47.8409V52H110.987V47.9091C110.987 47.3949 110.854 46.9943 110.587 46.7074C110.32 46.4176 109.953 46.2727 109.487 46.2727C109.166 46.2727 108.879 46.3423 108.626 46.4815C108.376 46.6207 108.179 46.8239 108.034 47.0909C107.889 47.358 107.817 47.6818 107.817 48.0625ZM116.677 45.4545V46.3068H113.285V45.4545H116.677ZM114.274 43.8864H115.279V50.125C115.279 50.4091 115.321 50.6222 115.403 50.7642C115.488 50.9034 115.596 50.9972 115.727 51.0455C115.86 51.0909 116.001 51.1136 116.149 51.1136C116.26 51.1136 116.35 51.108 116.422 51.0966C116.493 51.0824 116.549 51.071 116.592 51.0625L116.797 51.9659C116.728 51.9915 116.633 52.017 116.511 52.0426C116.389 52.071 116.234 52.0852 116.047 52.0852C115.762 52.0852 115.484 52.0241 115.211 51.902C114.941 51.7798 114.717 51.5938 114.538 51.3438C114.362 51.0938 114.274 50.7784 114.274 50.3977V43.8864ZM118.19 52V45.4545H119.162V46.4432H119.23C119.349 46.1193 119.565 45.8565 119.877 45.6548C120.19 45.4531 120.542 45.3523 120.934 45.3523C121.008 45.3523 121.1 45.3537 121.211 45.3565C121.322 45.3594 121.406 45.3636 121.463 45.3693V46.392C121.429 46.3835 121.35 46.3707 121.228 46.3537C121.109 46.3338 120.983 46.3239 120.849 46.3239C120.531 46.3239 120.247 46.3906 119.997 46.5241C119.75 46.6548 119.554 46.8366 119.409 47.0696C119.267 47.2997 119.196 47.5625 119.196 47.858V52H118.19ZM125.115 52.1364C124.524 52.1364 124.005 51.9957 123.559 51.7145C123.116 51.4332 122.77 51.0398 122.52 50.5341C122.272 50.0284 122.149 49.4375 122.149 48.7614C122.149 48.0795 122.272 47.4844 122.52 46.9759C122.77 46.4673 123.116 46.0724 123.559 45.7912C124.005 45.5099 124.524 45.3693 125.115 45.3693C125.706 45.3693 126.223 45.5099 126.666 45.7912C127.112 46.0724 127.458 46.4673 127.706 46.9759C127.956 47.4844 128.081 48.0795 128.081 48.7614C128.081 49.4375 127.956 50.0284 127.706 50.5341C127.458 51.0398 127.112 51.4332 126.666 51.7145C126.223 51.9957 125.706 52.1364 125.115 52.1364ZM125.115 51.233C125.564 51.233 125.933 51.1179 126.223 50.8878C126.512 50.6577 126.727 50.3551 126.866 49.9801C127.005 49.6051 127.075 49.1989 127.075 48.7614C127.075 48.3239 127.005 47.9162 126.866 47.5384C126.727 47.1605 126.512 46.8551 126.223 46.6222C125.933 46.3892 125.564 46.2727 125.115 46.2727C124.666 46.2727 124.297 46.3892 124.007 46.6222C123.717 46.8551 123.502 47.1605 123.363 47.5384C123.224 47.9162 123.154 48.3239 123.154 48.7614C123.154 49.1989 123.224 49.6051 123.363 49.9801C123.502 50.3551 123.717 50.6577 124.007 50.8878C124.297 51.1179 124.666 51.233 125.115 51.233ZM130.621 43.2727V52H129.616V43.2727H130.621ZM135.208 52.1364C134.577 52.1364 134.033 51.9972 133.576 51.7188C133.121 51.4375 132.77 51.0455 132.523 50.5426C132.279 50.0369 132.157 49.4489 132.157 48.7784C132.157 48.108 132.279 47.517 132.523 47.0057C132.77 46.4915 133.114 46.0909 133.554 45.804C133.998 45.5142 134.515 45.3693 135.105 45.3693C135.446 45.3693 135.783 45.4261 136.115 45.5398C136.448 45.6534 136.75 45.8381 137.023 46.0938C137.296 46.3466 137.513 46.6818 137.675 47.0994C137.837 47.517 137.918 48.0312 137.918 48.642V49.0682H132.873V48.1989H136.895C136.895 47.8295 136.821 47.5 136.674 47.2102C136.529 46.9205 136.321 46.6918 136.051 46.5241C135.784 46.3565 135.469 46.2727 135.105 46.2727C134.705 46.2727 134.358 46.3722 134.066 46.571C133.776 46.767 133.553 47.0227 133.397 47.3381C133.24 47.6534 133.162 47.9915 133.162 48.3523V48.9318C133.162 49.4261 133.248 49.8452 133.418 50.1889C133.591 50.5298 133.831 50.7898 134.138 50.9688C134.445 51.1449 134.801 51.233 135.208 51.233C135.472 51.233 135.711 51.196 135.924 51.1222C136.14 51.0455 136.326 50.9318 136.482 50.7812C136.638 50.6278 136.759 50.4375 136.844 50.2102L137.816 50.483C137.713 50.8125 137.542 51.1023 137.3 51.3523C137.059 51.5994 136.76 51.7926 136.405 51.9318C136.05 52.0682 135.651 52.1364 135.208 52.1364ZM145.294 52.1364C144.749 52.1364 144.267 51.9986 143.85 51.723C143.432 51.4446 143.105 51.0526 142.87 50.5469C142.634 50.0384 142.516 49.4375 142.516 48.7443C142.516 48.0568 142.634 47.4602 142.87 46.9545C143.105 46.4489 143.434 46.0582 143.854 45.7827C144.275 45.5071 144.76 45.3693 145.311 45.3693C145.738 45.3693 146.074 45.4403 146.321 45.5824C146.571 45.7216 146.762 45.8807 146.892 46.0597C147.026 46.2358 147.13 46.3807 147.203 46.4943H147.289V43.2727H148.294V52H147.323V50.9943H147.203C147.13 51.1136 147.025 51.2642 146.888 51.446C146.752 51.625 146.557 51.7855 146.304 51.9276C146.051 52.0668 145.715 52.1364 145.294 52.1364ZM145.431 51.233C145.834 51.233 146.175 51.1278 146.453 50.9176C146.732 50.7045 146.944 50.4105 147.088 50.0355C147.233 49.6577 147.306 49.2216 147.306 48.7273C147.306 48.2386 147.235 47.8111 147.093 47.4446C146.951 47.0753 146.74 46.7884 146.462 46.5838C146.184 46.3764 145.84 46.2727 145.431 46.2727C145.005 46.2727 144.65 46.3821 144.365 46.6009C144.084 46.8168 143.873 47.1108 143.73 47.483C143.591 47.8523 143.522 48.267 143.522 48.7273C143.522 49.1932 143.593 49.6165 143.735 49.9972C143.88 50.375 144.093 50.6761 144.374 50.9006C144.658 51.1222 145.01 51.233 145.431 51.233ZM153.02 52.1364C152.39 52.1364 151.846 51.9972 151.388 51.7188C150.934 51.4375 150.583 51.0455 150.336 50.5426C150.091 50.0369 149.969 49.4489 149.969 48.7784C149.969 48.108 150.091 47.517 150.336 47.0057C150.583 46.4915 150.926 46.0909 151.367 45.804C151.81 45.5142 152.327 45.3693 152.918 45.3693C153.259 45.3693 153.596 45.4261 153.928 45.5398C154.26 45.6534 154.563 45.8381 154.836 46.0938C155.108 46.3466 155.326 46.6818 155.488 47.0994C155.65 47.517 155.73 48.0312 155.73 48.642V49.0682H150.685V48.1989H154.708C154.708 47.8295 154.634 47.5 154.486 47.2102C154.341 46.9205 154.134 46.6918 153.864 46.5241C153.597 46.3565 153.282 46.2727 152.918 46.2727C152.517 46.2727 152.171 46.3722 151.878 46.571C151.588 46.767 151.365 47.0227 151.209 47.3381C151.053 47.6534 150.975 47.9915 150.975 48.3523V48.9318C150.975 49.4261 151.06 49.8452 151.23 50.1889C151.404 50.5298 151.644 50.7898 151.951 50.9688C152.257 51.1449 152.614 51.233 153.02 51.233C153.284 51.233 153.523 51.196 153.736 51.1222C153.952 51.0455 154.138 50.9318 154.294 50.7812C154.451 50.6278 154.571 50.4375 154.657 50.2102L155.628 50.483C155.526 50.8125 155.354 51.1023 155.113 51.3523C154.871 51.5994 154.573 51.7926 154.218 51.9318C153.863 52.0682 153.463 52.1364 153.02 52.1364ZM163.465 52H160.772V43.2727H163.584C164.431 43.2727 165.155 43.4474 165.757 43.7969C166.36 44.1435 166.821 44.642 167.142 45.2926C167.463 45.9403 167.624 46.7159 167.624 47.6193C167.624 48.5284 167.462 49.3111 167.138 49.9673C166.814 50.6207 166.343 51.1236 165.723 51.4759C165.104 51.8253 164.351 52 163.465 52ZM161.828 51.0625H163.397C164.118 51.0625 164.716 50.9233 165.191 50.6449C165.665 50.3665 166.019 49.9702 166.252 49.456C166.485 48.9418 166.601 48.3295 166.601 47.6193C166.601 46.9148 166.486 46.3082 166.256 45.7997C166.026 45.2884 165.682 44.8963 165.225 44.6236C164.767 44.348 164.198 44.2102 163.516 44.2102H161.828V51.0625ZM169.26 52V45.4545H170.266V52H169.26ZM169.772 44.3636C169.576 44.3636 169.407 44.2969 169.265 44.1634C169.125 44.0298 169.056 43.8693 169.056 43.6818C169.056 43.4943 169.125 43.3338 169.265 43.2003C169.407 43.0668 169.576 43 169.772 43C169.968 43 170.135 43.0668 170.275 43.2003C170.417 43.3338 170.488 43.4943 170.488 43.6818C170.488 43.8693 170.417 44.0298 170.275 44.1634C170.135 44.2969 169.968 44.3636 169.772 44.3636ZM174.034 52.1534C173.619 52.1534 173.243 52.0753 172.905 51.919C172.567 51.7599 172.298 51.5312 172.099 51.233C171.901 50.9318 171.801 50.5682 171.801 50.142C171.801 49.767 171.875 49.4631 172.023 49.2301C172.17 48.9943 172.368 48.8097 172.615 48.6761C172.862 48.5426 173.135 48.4432 173.433 48.3778C173.734 48.3097 174.037 48.2557 174.341 48.2159C174.739 48.1648 175.061 48.1264 175.308 48.1009C175.558 48.0724 175.74 48.0256 175.854 47.9602C175.97 47.8949 176.028 47.7812 176.028 47.6193V47.5852C176.028 47.1648 175.913 46.8381 175.683 46.6051C175.456 46.3722 175.111 46.2557 174.648 46.2557C174.168 46.2557 173.791 46.3608 173.518 46.571C173.246 46.7812 173.054 47.0057 172.943 47.2443L171.989 46.9034C172.159 46.5057 172.386 46.196 172.67 45.9744C172.957 45.75 173.27 45.5937 173.608 45.5057C173.949 45.4148 174.284 45.3693 174.614 45.3693C174.824 45.3693 175.065 45.3949 175.338 45.446C175.614 45.4943 175.879 45.5952 176.135 45.7486C176.393 45.902 176.608 46.1335 176.778 46.4432C176.949 46.7528 177.034 47.1676 177.034 47.6875V52H176.028V51.1136H175.977C175.909 51.2557 175.795 51.4077 175.636 51.5696C175.477 51.7315 175.266 51.8693 175.001 51.983C174.737 52.0966 174.415 52.1534 174.034 52.1534ZM174.188 51.25C174.585 51.25 174.92 51.1719 175.193 51.0156C175.469 50.8594 175.676 50.6577 175.815 50.4105C175.957 50.1634 176.028 49.9034 176.028 49.6307V48.7102C175.986 48.7614 175.892 48.8082 175.747 48.8509C175.605 48.8906 175.44 48.9261 175.253 48.9574C175.068 48.9858 174.888 49.0114 174.712 49.0341C174.538 49.054 174.398 49.071 174.29 49.0852C174.028 49.1193 173.784 49.1747 173.557 49.2514C173.332 49.3253 173.151 49.4375 173.011 49.5881C172.875 49.7358 172.807 49.9375 172.807 50.1932C172.807 50.5426 172.936 50.8068 173.195 50.9858C173.456 51.1619 173.787 51.25 174.188 51.25ZM183.506 46.9205L182.603 47.1761C182.546 47.0256 182.462 46.8793 182.351 46.7372C182.243 46.5923 182.096 46.473 181.908 46.3793C181.721 46.2855 181.48 46.2386 181.188 46.2386C180.787 46.2386 180.453 46.331 180.186 46.5156C179.922 46.6974 179.79 46.929 179.79 47.2102C179.79 47.4602 179.881 47.6577 180.063 47.8026C180.245 47.9474 180.529 48.0682 180.915 48.1648L181.887 48.4034C182.472 48.5455 182.908 48.7628 183.195 49.0554C183.482 49.3452 183.625 49.7187 183.625 50.1761C183.625 50.5511 183.517 50.8864 183.301 51.1818C183.088 51.4773 182.79 51.7102 182.407 51.8807C182.023 52.0511 181.577 52.1364 181.069 52.1364C180.401 52.1364 179.848 51.9915 179.411 51.7017C178.973 51.4119 178.696 50.9886 178.58 50.4318L179.534 50.1932C179.625 50.5455 179.797 50.8097 180.05 50.9858C180.306 51.1619 180.64 51.25 181.051 51.25C181.52 51.25 181.892 51.1506 182.168 50.9517C182.446 50.75 182.586 50.5085 182.586 50.2273C182.586 50 182.506 49.8097 182.347 49.6562C182.188 49.5 181.944 49.3835 181.614 49.3068L180.523 49.0511C179.924 48.9091 179.483 48.6889 179.202 48.3906C178.924 48.0895 178.784 47.7131 178.784 47.2614C178.784 46.892 178.888 46.5653 179.096 46.2812C179.306 45.9972 179.591 45.7741 179.952 45.6122C180.316 45.4503 180.728 45.3693 181.188 45.3693C181.836 45.3693 182.344 45.5114 182.713 45.7955C183.086 46.0795 183.35 46.4545 183.506 46.9205ZM188.173 44.2102V43.2727H194.719V44.2102H191.974V52H190.918V44.2102H188.173ZM195.534 52V45.4545H196.505V46.4432H196.574C196.693 46.1193 196.909 45.8565 197.221 45.6548C197.534 45.4531 197.886 45.3523 198.278 45.3523C198.352 45.3523 198.444 45.3537 198.555 45.3565C198.666 45.3594 198.75 45.3636 198.806 45.3693V46.392C198.772 46.3835 198.694 46.3707 198.572 46.3537C198.453 46.3338 198.326 46.3239 198.193 46.3239C197.875 46.3239 197.591 46.3906 197.341 46.5241C197.093 46.6548 196.897 46.8366 196.752 47.0696C196.61 47.2997 196.539 47.5625 196.539 47.858V52H195.534ZM201.925 52.1534C201.51 52.1534 201.134 52.0753 200.795 51.919C200.457 51.7599 200.189 51.5312 199.99 51.233C199.791 50.9318 199.692 50.5682 199.692 50.142C199.692 49.767 199.766 49.4631 199.913 49.2301C200.061 48.9943 200.259 48.8097 200.506 48.6761C200.753 48.5426 201.026 48.4432 201.324 48.3778C201.625 48.3097 201.928 48.2557 202.232 48.2159C202.629 48.1648 202.952 48.1264 203.199 48.1009C203.449 48.0724 203.631 48.0256 203.744 47.9602C203.861 47.8949 203.919 47.7812 203.919 47.6193V47.5852C203.919 47.1648 203.804 46.8381 203.574 46.6051C203.347 46.3722 203.001 46.2557 202.538 46.2557C202.058 46.2557 201.682 46.3608 201.409 46.571C201.136 46.7812 200.945 47.0057 200.834 47.2443L199.879 46.9034C200.05 46.5057 200.277 46.196 200.561 45.9744C200.848 45.75 201.161 45.5937 201.499 45.5057C201.839 45.4148 202.175 45.3693 202.504 45.3693C202.714 45.3693 202.956 45.3949 203.229 45.446C203.504 45.4943 203.77 45.5952 204.026 45.7486C204.284 45.902 204.499 46.1335 204.669 46.4432C204.839 46.7528 204.925 47.1676 204.925 47.6875V52H203.919V51.1136H203.868C203.8 51.2557 203.686 51.4077 203.527 51.5696C203.368 51.7315 203.156 51.8693 202.892 51.983C202.628 52.0966 202.305 52.1534 201.925 52.1534ZM202.078 51.25C202.476 51.25 202.811 51.1719 203.084 51.0156C203.359 50.8594 203.567 50.6577 203.706 50.4105C203.848 50.1634 203.919 49.9034 203.919 49.6307V48.7102C203.876 48.7614 203.783 48.8082 203.638 48.8509C203.496 48.8906 203.331 48.9261 203.143 48.9574C202.959 48.9858 202.778 49.0114 202.602 49.0341C202.429 49.054 202.288 49.071 202.18 49.0852C201.919 49.1193 201.675 49.1747 201.447 49.2514C201.223 49.3253 201.041 49.4375 200.902 49.5881C200.766 49.7358 200.697 49.9375 200.697 50.1932C200.697 50.5426 200.827 50.8068 201.085 50.9858C201.347 51.1619 201.678 51.25 202.078 51.25ZM206.897 52V43.2727H207.902V46.4943H207.988C208.061 46.3807 208.164 46.2358 208.294 46.0597C208.428 45.8807 208.618 45.7216 208.865 45.5824C209.115 45.4403 209.453 45.3693 209.88 45.3693C210.431 45.3693 210.917 45.5071 211.337 45.7827C211.757 46.0582 212.086 46.4489 212.321 46.9545C212.557 47.4602 212.675 48.0568 212.675 48.7443C212.675 49.4375 212.557 50.0384 212.321 50.5469C212.086 51.0526 211.759 51.4446 211.341 51.723C210.924 51.9986 210.442 52.1364 209.897 52.1364C209.476 52.1364 209.14 52.0668 208.887 51.9276C208.634 51.7855 208.439 51.625 208.303 51.446C208.167 51.2642 208.061 51.1136 207.988 50.9943H207.868V52H206.897ZM207.885 48.7273C207.885 49.2216 207.958 49.6577 208.103 50.0355C208.248 50.4105 208.459 50.7045 208.738 50.9176C209.016 51.1278 209.357 51.233 209.76 51.233C210.181 51.233 210.532 51.1222 210.813 50.9006C211.097 50.6761 211.31 50.375 211.452 49.9972C211.597 49.6165 211.669 49.1932 211.669 48.7273C211.669 48.267 211.598 47.8523 211.456 47.483C211.317 47.1108 211.105 46.8168 210.821 46.6009C210.54 46.3821 210.186 46.2727 209.76 46.2727C209.351 46.2727 209.007 46.3764 208.729 46.5838C208.451 46.7884 208.24 47.0753 208.098 47.4446C207.956 47.8111 207.885 48.2386 207.885 48.7273ZM216.14 52.1534C215.725 52.1534 215.348 52.0753 215.01 51.919C214.672 51.7599 214.404 51.5312 214.205 51.233C214.006 50.9318 213.907 50.5682 213.907 50.142C213.907 49.767 213.98 49.4631 214.128 49.2301C214.276 48.9943 214.473 48.8097 214.721 48.6761C214.968 48.5426 215.24 48.4432 215.539 48.3778C215.84 48.3097 216.142 48.2557 216.446 48.2159C216.844 48.1648 217.167 48.1264 217.414 48.1009C217.664 48.0724 217.846 48.0256 217.959 47.9602C218.076 47.8949 218.134 47.7812 218.134 47.6193V47.5852C218.134 47.1648 218.019 46.8381 217.789 46.6051C217.561 46.3722 217.216 46.2557 216.753 46.2557C216.273 46.2557 215.897 46.3608 215.624 46.571C215.351 46.7812 215.159 47.0057 215.049 47.2443L214.094 46.9034C214.265 46.5057 214.492 46.196 214.776 45.9744C215.063 45.75 215.375 45.5937 215.713 45.5057C216.054 45.4148 216.39 45.3693 216.719 45.3693C216.929 45.3693 217.171 45.3949 217.444 45.446C217.719 45.4943 217.985 45.5952 218.24 45.7486C218.499 45.902 218.713 46.1335 218.884 46.4432C219.054 46.7528 219.14 47.1676 219.14 47.6875V52H218.134V51.1136H218.083C218.015 51.2557 217.901 51.4077 217.742 51.5696C217.583 51.7315 217.371 51.8693 217.107 51.983C216.843 52.0966 216.52 52.1534 216.14 52.1534ZM216.293 51.25C216.691 51.25 217.026 51.1719 217.299 51.0156C217.574 50.8594 217.782 50.6577 217.921 50.4105C218.063 50.1634 218.134 49.9034 218.134 49.6307V48.7102C218.091 48.7614 217.998 48.8082 217.853 48.8509C217.711 48.8906 217.546 48.9261 217.358 48.9574C217.174 48.9858 216.993 49.0114 216.817 49.0341C216.644 49.054 216.503 49.071 216.395 49.0852C216.134 49.1193 215.89 49.1747 215.662 49.2514C215.438 49.3253 215.256 49.4375 215.117 49.5881C214.98 49.7358 214.912 49.9375 214.912 50.1932C214.912 50.5426 215.042 50.8068 215.3 50.9858C215.561 51.1619 215.892 51.25 216.293 51.25ZM221.981 43.2727V52H220.975V43.2727H221.981ZM224.828 48.0625V52H223.823V43.2727H224.828V46.4773H224.914C225.067 46.1392 225.297 45.8707 225.604 45.6719C225.914 45.4702 226.326 45.3693 226.84 45.3693C227.286 45.3693 227.676 45.4588 228.012 45.6378C228.347 45.8139 228.607 46.0852 228.792 46.4517C228.979 46.8153 229.073 47.2784 229.073 47.8409V52H228.067V47.9091C228.067 47.3892 227.932 46.9872 227.662 46.7031C227.395 46.4162 227.025 46.2727 226.55 46.2727C226.221 46.2727 225.925 46.3423 225.664 46.4815C225.405 46.6207 225.201 46.8239 225.05 47.0909C224.902 47.358 224.828 47.6818 224.828 48.0625ZM232.839 52.1534C232.424 52.1534 232.048 52.0753 231.71 51.919C231.371 51.7599 231.103 51.5312 230.904 51.233C230.705 50.9318 230.606 50.5682 230.606 50.142C230.606 49.767 230.68 49.4631 230.827 49.2301C230.975 48.9943 231.173 48.8097 231.42 48.6761C231.667 48.5426 231.94 48.4432 232.238 48.3778C232.539 48.3097 232.842 48.2557 233.146 48.2159C233.543 48.1648 233.866 48.1264 234.113 48.1009C234.363 48.0724 234.545 48.0256 234.658 47.9602C234.775 47.8949 234.833 47.7812 234.833 47.6193V47.5852C234.833 47.1648 234.718 46.8381 234.488 46.6051C234.261 46.3722 233.915 46.2557 233.452 46.2557C232.972 46.2557 232.596 46.3608 232.323 46.571C232.05 46.7812 231.859 47.0057 231.748 47.2443L230.793 46.9034C230.964 46.5057 231.191 46.196 231.475 45.9744C231.762 45.75 232.075 45.5937 232.413 45.5057C232.754 45.4148 233.089 45.3693 233.418 45.3693C233.629 45.3693 233.87 45.3949 234.143 45.446C234.418 45.4943 234.684 45.5952 234.94 45.7486C235.198 45.902 235.413 46.1335 235.583 46.4432C235.754 46.7528 235.839 47.1676 235.839 47.6875V52H234.833V51.1136H234.782C234.714 51.2557 234.6 51.4077 234.441 51.5696C234.282 51.7315 234.07 51.8693 233.806 51.983C233.542 52.0966 233.219 52.1534 232.839 52.1534ZM232.992 51.25C233.39 51.25 233.725 51.1719 233.998 51.0156C234.273 50.8594 234.481 50.6577 234.62 50.4105C234.762 50.1634 234.833 49.9034 234.833 49.6307V48.7102C234.79 48.7614 234.697 48.8082 234.552 48.8509C234.41 48.8906 234.245 48.9261 234.058 48.9574C233.873 48.9858 233.692 49.0114 233.516 49.0341C233.343 49.054 233.202 49.071 233.094 49.0852C232.833 49.1193 232.589 49.1747 232.362 49.2514C232.137 49.3253 231.955 49.4375 231.816 49.5881C231.68 49.7358 231.612 49.9375 231.612 50.1932C231.612 50.5426 231.741 50.8068 231.999 50.9858C232.261 51.1619 232.592 51.25 232.992 51.25ZM240.146 52.1364C239.6 52.1364 239.119 51.9986 238.701 51.723C238.284 51.4446 237.957 51.0526 237.721 50.5469C237.485 50.0384 237.368 49.4375 237.368 48.7443C237.368 48.0568 237.485 47.4602 237.721 46.9545C237.957 46.4489 238.285 46.0582 238.706 45.7827C239.126 45.5071 239.612 45.3693 240.163 45.3693C240.589 45.3693 240.926 45.4403 241.173 45.5824C241.423 45.7216 241.613 45.8807 241.744 46.0597C241.877 46.2358 241.981 46.3807 242.055 46.4943H242.14V43.2727H243.146V52H242.174V50.9943H242.055C241.981 51.1136 241.876 51.2642 241.74 51.446C241.603 51.625 241.409 51.7855 241.156 51.9276C240.903 52.0668 240.566 52.1364 240.146 52.1364ZM240.282 51.233C240.686 51.233 241.027 51.1278 241.305 50.9176C241.583 50.7045 241.795 50.4105 241.94 50.0355C242.085 49.6577 242.157 49.2216 242.157 48.7273C242.157 48.2386 242.086 47.8111 241.944 47.4446C241.802 47.0753 241.592 46.7884 241.314 46.5838C241.035 46.3764 240.691 46.2727 240.282 46.2727C239.856 46.2727 239.501 46.3821 239.217 46.6009C238.936 46.8168 238.724 47.1108 238.582 47.483C238.443 47.8523 238.373 48.267 238.373 48.7273C238.373 49.1932 238.444 49.6165 238.586 49.9972C238.731 50.375 238.944 50.6761 239.225 50.9006C239.51 51.1222 239.862 51.233 240.282 51.233ZM247.787 52.1364C247.196 52.1364 246.677 51.9957 246.231 51.7145C245.788 51.4332 245.441 51.0398 245.191 50.5341C244.944 50.0284 244.821 49.4375 244.821 48.7614C244.821 48.0795 244.944 47.4844 245.191 46.9759C245.441 46.4673 245.788 46.0724 246.231 45.7912C246.677 45.5099 247.196 45.3693 247.787 45.3693C248.377 45.3693 248.895 45.5099 249.338 45.7912C249.784 46.0724 250.13 46.4673 250.377 46.9759C250.627 47.4844 250.752 48.0795 250.752 48.7614C250.752 49.4375 250.627 50.0284 250.377 50.5341C250.13 51.0398 249.784 51.4332 249.338 51.7145C248.895 51.9957 248.377 52.1364 247.787 52.1364ZM247.787 51.233C248.235 51.233 248.605 51.1179 248.895 50.8878C249.184 50.6577 249.399 50.3551 249.538 49.9801C249.677 49.6051 249.747 49.1989 249.747 48.7614C249.747 48.3239 249.677 47.9162 249.538 47.5384C249.399 47.1605 249.184 46.8551 248.895 46.6222C248.605 46.3892 248.235 46.2727 247.787 46.2727C247.338 46.2727 246.968 46.3892 246.679 46.6222C246.389 46.8551 246.174 47.1605 246.035 47.5384C245.896 47.9162 245.826 48.3239 245.826 48.7614C245.826 49.1989 245.896 49.6051 246.035 49.9801C246.174 50.3551 246.389 50.6577 246.679 50.8878C246.968 51.1179 247.338 51.233 247.787 51.233ZM256.924 46.9205L256.021 47.1761C255.964 47.0256 255.88 46.8793 255.769 46.7372C255.661 46.5923 255.513 46.473 255.326 46.3793C255.138 46.2855 254.898 46.2386 254.606 46.2386C254.205 46.2386 253.871 46.331 253.604 46.5156C253.34 46.6974 253.208 46.929 253.208 47.2102C253.208 47.4602 253.299 47.6577 253.481 47.8026C253.663 47.9474 253.947 48.0682 254.333 48.1648L255.305 48.4034C255.89 48.5455 256.326 48.7628 256.613 49.0554C256.9 49.3452 257.043 49.7187 257.043 50.1761C257.043 50.5511 256.935 50.8864 256.719 51.1818C256.506 51.4773 256.208 51.7102 255.825 51.8807C255.441 52.0511 254.995 52.1364 254.487 52.1364C253.819 52.1364 253.266 51.9915 252.829 51.7017C252.391 51.4119 252.114 50.9886 251.998 50.4318L252.952 50.1932C253.043 50.5455 253.215 50.8097 253.468 50.9858C253.724 51.1619 254.058 51.25 254.469 51.25C254.938 51.25 255.31 51.1506 255.586 50.9517C255.864 50.75 256.004 50.5085 256.004 50.2273C256.004 50 255.924 49.8097 255.765 49.6562C255.606 49.5 255.362 49.3835 255.032 49.3068L253.941 49.0511C253.342 48.9091 252.901 48.6889 252.62 48.3906C252.342 48.0895 252.202 47.7131 252.202 47.2614C252.202 46.892 252.306 46.5653 252.513 46.2812C252.724 45.9972 253.009 45.7741 253.37 45.6122C253.734 45.4503 254.146 45.3693 254.606 45.3693C255.254 45.3693 255.762 45.5114 256.131 45.7955C256.504 46.0795 256.768 46.4545 256.924 46.9205Z" fill="#CCCCCC"/>
<path d="M40 73C58.7777 73 74 58.897 74 41.5C74 24.103 58.7777 10 40 10C21.2223 10 6 24.103 6 41.5C6 58.897 21.2223 73 40 73Z" fill="#2563EB" stroke="#1D4ED8" stroke-width="4"/>
<path d="M52.0889 24H27.9111C26.242 24 24.8889 25.2536 24.8889 26.8V45.7C24.8889 47.2464 26.242 48.5 27.9111 48.5H52.0889C53.758 48.5 55.1111 47.2464 55.1111 45.7V26.8C55.1111 25.2536 53.758 24 52.0889 24Z" fill="white" stroke="#E5E7EB" stroke-width="2"/>
<path d="M52.0889 24H27.9111C26.242 24 24.8889 25.2536 24.8889 26.8V28.2C24.8889 29.7464 26.242 31 27.9111 31H52.0889C53.758 31 55.1111 29.7464 55.1111 28.2V26.8C55.1111 25.2536 53.758 24 52.0889 24Z" fill="#3B82F6"/>
<path d="M55.1111 28.2H24.8889V31H55.1111V28.2Z" fill="#3B82F6"/>
<path d="M30.5556 23.3C31.1815 23.3 31.6889 22.8299 31.6889 22.25C31.6889 21.6701 31.1815 21.2 30.5556 21.2C29.9296 21.2 29.4222 21.6701 29.4222 22.25C29.4222 22.8299 29.9296 23.3 30.5556 23.3Z" fill="#6B7280"/>
<path d="M49.4445 23.3C50.0704 23.3 50.5778 22.8299 50.5778 22.25C50.5778 21.6701 50.0704 21.2 49.4445 21.2C48.8185 21.2 48.3111 21.6701 48.3111 22.25C48.3111 22.8299 48.8185 23.3 49.4445 23.3Z" fill="#6B7280"/>
<path d="M31.3111 19.45C31.3111 19.0634 30.9728 18.75 30.5556 18.75C30.1383 18.75 29.8 19.0634 29.8 19.45V23.3C29.8 23.6866 30.1383 24 30.5556 24C30.9728 24 31.3111 23.6866 31.3111 23.3V19.45Z" fill="#6B7280"/>
<path d="M50.2 19.45C50.2 19.0634 49.8617 18.75 49.4444 18.75C49.0272 18.75 48.6889 19.0634 48.6889 19.45V23.3C48.6889 23.6866 49.0272 24 49.4444 24C49.8617 24 50.2 23.6866 50.2 23.3V19.45Z" fill="#6B7280"/>
<path d="M30.5555 32.75V46.75" stroke="#E5E7EB"/>
<path d="M36.2222 32.75V46.75" stroke="#E5E7EB"/>
<path d="M43.7778 32.75V46.75" stroke="#E5E7EB"/>
<path d="M49.4445 32.75V46.75" stroke="#E5E7EB"/>
<path d="M26.7778 36.25H53.2222" stroke="#E5E7EB"/>
<path d="M26.7778 41.5H53.2222" stroke="#E5E7EB"/>
<path d="M33.3889 40.275C34.2235 40.275 34.9 39.6482 34.9 38.875C34.9 38.1018 34.2235 37.475 33.3889 37.475C32.5543 37.475 31.8778 38.1018 31.8778 38.875C31.8778 39.6482 32.5543 40.275 33.3889 40.275Z" fill="#10B981"/>
<path d="M39.0556 40.275C39.8901 40.275 40.5667 39.6482 40.5667 38.875C40.5667 38.1018 39.8901 37.475 39.0556 37.475C38.221 37.475 37.5444 38.1018 37.5444 38.875C37.5444 39.6482 38.221 40.275 39.0556 40.275Z" fill="#10B981"/>
<path d="M46.6111 40.275C47.4457 40.275 48.1222 39.6482 48.1222 38.875C48.1222 38.1018 47.4457 37.475 46.6111 37.475C45.7765 37.475 45.1 38.1018 45.1 38.875C45.1 39.6482 45.7765 40.275 46.6111 40.275Z" fill="#10B981"/>
<path d="M27.7222 45.525C28.5568 45.525 29.2333 44.8982 29.2333 44.125C29.2333 43.3518 28.5568 42.725 27.7222 42.725C26.8877 42.725 26.2111 43.3518 26.2111 44.125C26.2111 44.8982 26.8877 45.525 27.7222 45.525Z" fill="#10B981"/>
<path d="M39.0556 45.525C39.8901 45.525 40.5667 44.8982 40.5667 44.125C40.5667 43.3518 39.8901 42.725 39.0556 42.725C38.221 42.725 37.5444 43.3518 37.5444 44.125C37.5444 44.8982 38.221 45.525 39.0556 45.525Z" fill="#10B981"/>
<path d="M40 64.25C45.216 64.25 49.4444 60.3325 49.4444 55.5C49.4444 50.6675 45.216 46.75 40 46.75C34.784 46.75 30.5555 50.6675 30.5555 55.5C30.5555 60.3325 34.784 64.25 40 64.25Z" fill="#FBBF24" stroke="#F59E0B" stroke-width="2"/>
<path d="M39.7298 61.0909V50.1818H40.4286V61.0909H39.7298ZM41.5835 53.7827C41.5494 53.4389 41.4031 53.1719 41.1446 52.9815C40.886 52.7912 40.5352 52.696 40.092 52.696C39.7909 52.696 39.5366 52.7386 39.3292 52.8239C39.1218 52.9062 38.9627 53.0213 38.8519 53.169C38.744 53.3168 38.69 53.4844 38.69 53.6719C38.6843 53.8281 38.717 53.9645 38.788 54.081C38.8619 54.1974 38.9627 54.2983 39.0906 54.3835C39.2184 54.4659 39.3661 54.5384 39.5338 54.6009C39.7014 54.6605 39.8804 54.7116 40.0707 54.7543L40.8548 54.9418C41.2355 55.027 41.5849 55.1406 41.9031 55.2827C42.2213 55.4247 42.4968 55.5994 42.7298 55.8068C42.9627 56.0142 43.1431 56.2585 43.271 56.5398C43.4017 56.821 43.4684 57.1435 43.4713 57.5071C43.4684 58.0412 43.3321 58.5043 43.0622 58.8963C42.7951 59.2855 42.4088 59.5881 41.9031 59.804C41.4002 60.017 40.7937 60.1236 40.0835 60.1236C39.3789 60.1236 38.7653 60.0156 38.2426 59.7997C37.7227 59.5838 37.3164 59.2642 37.0238 58.8409C36.734 58.4148 36.5821 57.8878 36.5679 57.2599H38.3534C38.3733 57.5526 38.4571 57.7969 38.6048 57.9929C38.7554 58.1861 38.9556 58.3324 39.2056 58.4318C39.4585 58.5284 39.744 58.5767 40.0622 58.5767C40.3747 58.5767 40.646 58.5312 40.8761 58.4403C41.109 58.3494 41.2894 58.223 41.4173 58.0611C41.5451 57.8991 41.609 57.7131 41.609 57.5028C41.609 57.3068 41.5508 57.142 41.4343 57.0085C41.3207 56.875 41.1531 56.7614 40.9315 56.6676C40.7127 56.5739 40.4443 56.4886 40.1261 56.4119L39.1758 56.1733C38.44 55.9943 37.859 55.7145 37.4329 55.3338C37.0068 54.9531 36.7951 54.4403 36.798 53.7955C36.7951 53.267 36.9358 52.8054 37.2198 52.4105C37.5068 52.0156 37.9002 51.7074 38.4002 51.4858C38.9002 51.2642 39.4684 51.1534 40.1048 51.1534C40.7525 51.1534 41.3179 51.2642 41.8008 51.4858C42.2866 51.7074 42.6644 52.0156 42.9343 52.4105C43.2042 52.8054 43.3434 53.2628 43.3519 53.7827H41.5835Z" fill="white"/>
<path d="M24.1333 52H18.0889C17.6716 52 17.3333 52.3134 17.3333 52.7V56.55C17.3333 56.9366 17.6716 57.25 18.0889 57.25H24.1333C24.5506 57.25 24.8889 56.9366 24.8889 56.55V52.7C24.8889 52.3134 24.5506 52 24.1333 52Z" fill="#4ADE80" stroke="#22C55E"/>
<path d="M23.7556 52.7H18.4667C18.258 52.7 18.0889 52.8567 18.0889 53.05V53.75C18.0889 53.9433 18.258 54.1 18.4667 54.1H23.7556C23.9642 54.1 24.1333 53.9433 24.1333 53.75V53.05C24.1333 52.8567 23.9642 52.7 23.7556 52.7Z" fill="white"/>
<path d="M19.2222 55.675C19.5352 55.675 19.7889 55.4399 19.7889 55.15C19.7889 54.8601 19.5352 54.625 19.2222 54.625C18.9093 54.625 18.6556 54.8601 18.6556 55.15C18.6556 55.4399 18.9093 55.675 19.2222 55.675Z" fill="white"/>
<path d="M21.1111 55.675C21.4241 55.675 21.6778 55.4399 21.6778 55.15C21.6778 54.8601 21.4241 54.625 21.1111 54.625C20.7982 54.625 20.5444 54.8601 20.5444 55.15C20.5444 55.4399 20.7982 55.675 21.1111 55.675Z" fill="white"/>
<path d="M23 55.675C23.313 55.675 23.5667 55.4399 23.5667 55.15C23.5667 54.8601 23.313 54.625 23 54.625C22.687 54.625 22.4333 54.8601 22.4333 55.15C22.4333 55.4399 22.687 55.675 23 55.675Z" fill="white"/>
<path d="M58.8889 57.25L64.5556 52" stroke="#10B981" stroke-width="3"/>
<path d="M62.6667 52H64.5555V53.75" stroke="#10B981" stroke-width="3" stroke-linecap="round" stroke-linejoin="round"/>
</svg>
