<svg width="200" height="200" viewBox="0 0 200 200" fill="none" xmlns="http://www.w3.org/2000/svg">
<path d="M100 190C149.706 190 190 149.706 190 100C190 50.2944 149.706 10 100 10C50.2944 10 10 50.2944 10 100C10 149.706 50.2944 190 100 190Z" fill="#2563EB" stroke="#1D4ED8" stroke-width="4"/>
<path d="M132 50H68C63.5817 50 60 53.5817 60 58V112C60 116.418 63.5817 120 68 120H132C136.418 120 140 116.418 140 112V58C140 53.5817 136.418 50 132 50Z" fill="white" stroke="#E5E7EB" stroke-width="2"/>
<path d="M132 50H68C63.5817 50 60 53.5817 60 58V62C60 66.4183 63.5817 70 68 70H132C136.418 70 140 66.4183 140 62V58C140 53.5817 136.418 50 132 50Z" fill="#3B82F6"/>
<path d="M140 62H60V70H140V62Z" fill="#3B82F6"/>
<path d="M75 48C76.6569 48 78 46.6569 78 45C78 43.3431 76.6569 42 75 42C73.3431 42 72 43.3431 72 45C72 46.6569 73.3431 48 75 48Z" fill="#6B7280"/>
<path d="M125 48C126.657 48 128 46.6569 128 45C128 43.3431 126.657 42 125 42C123.343 42 122 43.3431 122 45C122 46.6569 123.343 48 125 48Z" fill="#6B7280"/>
<path d="M77 37C77 35.8954 76.1046 35 75 35C73.8954 35 73 35.8954 73 37V48C73 49.1046 73.8954 50 75 50C76.1046 50 77 49.1046 77 48V37Z" fill="#6B7280"/>
<path d="M127 37C127 35.8954 126.105 35 125 35C123.895 35 123 35.8954 123 37V48C123 49.1046 123.895 50 125 50C126.105 50 127 49.1046 127 48V37Z" fill="#6B7280"/>
<path d="M75 75V115" stroke="#E5E7EB"/>
<path d="M90 75V115" stroke="#E5E7EB"/>
<path d="M110 75V115" stroke="#E5E7EB"/>
<path d="M125 75V115" stroke="#E5E7EB"/>
<path d="M65 85H135" stroke="#E5E7EB"/>
<path d="M65 100H135" stroke="#E5E7EB"/>
<path d="M82.5 96.5C84.7091 96.5 86.5 94.7091 86.5 92.5C86.5 90.2909 84.7091 88.5 82.5 88.5C80.2909 88.5 78.5 90.2909 78.5 92.5C78.5 94.7091 80.2909 96.5 82.5 96.5Z" fill="#10B981"/>
<path d="M97.5 96.5C99.7091 96.5 101.5 94.7091 101.5 92.5C101.5 90.2909 99.7091 88.5 97.5 88.5C95.2909 88.5 93.5 90.2909 93.5 92.5C93.5 94.7091 95.2909 96.5 97.5 96.5Z" fill="#10B981"/>
<path d="M117.5 96.5C119.709 96.5 121.5 94.7091 121.5 92.5C121.5 90.2909 119.709 88.5 117.5 88.5C115.291 88.5 113.5 90.2909 113.5 92.5C113.5 94.7091 115.291 96.5 117.5 96.5Z" fill="#10B981"/>
<path d="M67.5 111.5C69.7091 111.5 71.5 109.709 71.5 107.5C71.5 105.291 69.7091 103.5 67.5 103.5C65.2909 103.5 63.5 105.291 63.5 107.5C63.5 109.709 65.2909 111.5 67.5 111.5Z" fill="#10B981"/>
<path d="M97.5 111.5C99.7091 111.5 101.5 109.709 101.5 107.5C101.5 105.291 99.7091 103.5 97.5 103.5C95.2909 103.5 93.5 105.291 93.5 107.5C93.5 109.709 95.2909 111.5 97.5 111.5Z" fill="#10B981"/>
<path d="M100 165C113.807 165 125 153.807 125 140C125 126.193 113.807 115 100 115C86.1929 115 75 126.193 75 140C75 153.807 86.1929 165 100 165Z" fill="#FBBF24" stroke="#F59E0B" stroke-width="2"/>
<path d="M98.6471 157.182V125.364H100.685V157.182H98.6471ZM104.054 135.866C103.954 134.864 103.528 134.085 102.773 133.529C102.019 132.974 100.996 132.697 99.7035 132.697C98.8252 132.697 98.0836 132.821 97.4787 133.07C96.8739 133.31 96.4098 133.645 96.0867 134.076C95.7718 134.507 95.6144 134.996 95.6144 135.543C95.5978 135.999 95.6931 136.396 95.9003 136.736C96.1157 137.076 96.4098 137.37 96.7827 137.619C97.1556 137.859 97.5865 138.07 98.0753 138.252C98.5642 138.426 99.0862 138.576 99.6414 138.7L101.928 139.247C103.039 139.495 104.058 139.827 104.986 140.241C105.914 140.655 106.718 141.165 107.397 141.77C108.077 142.375 108.603 143.087 108.976 143.908C109.357 144.728 109.551 145.668 109.56 146.729C109.551 148.287 109.154 149.637 108.367 150.781C107.588 151.916 106.461 152.799 104.986 153.428C103.519 154.05 101.75 154.36 99.6787 154.36C97.6237 154.36 95.834 154.046 94.3093 153.416C92.793 152.786 91.6081 151.854 90.7547 150.619C89.9095 149.376 89.4662 147.839 89.4248 146.008H94.6325C94.6905 146.862 94.9349 147.574 95.3658 148.146C95.805 148.709 96.3891 149.136 97.1183 149.426C97.8557 149.708 98.6885 149.849 99.6165 149.849C100.528 149.849 101.319 149.716 101.99 149.451C102.67 149.186 103.196 148.817 103.569 148.345C103.942 147.873 104.128 147.33 104.128 146.717C104.128 146.145 103.958 145.664 103.619 145.275C103.287 144.885 102.798 144.554 102.152 144.281C101.514 144.007 100.731 143.759 99.803 143.535L97.0313 142.839C94.8852 142.317 93.1907 141.501 91.9478 140.39C90.7049 139.28 90.0876 137.784 90.0959 135.903C90.0876 134.362 90.4978 133.016 91.3264 131.864C92.1633 130.712 93.3109 129.813 94.7692 129.167C96.2276 128.521 97.8848 128.197 99.7408 128.197C101.63 128.197 103.279 128.521 104.688 129.167C106.104 129.813 107.206 130.712 107.994 131.864C108.781 133.016 109.187 134.35 109.212 135.866H104.054Z" fill="white"/>
<path d="M58 130H42C40.8954 130 40 130.895 40 132V143C40 144.105 40.8954 145 42 145H58C59.1046 145 60 144.105 60 143V132C60 130.895 59.1046 130 58 130Z" fill="#4ADE80" stroke="#22C55E"/>
<path d="M57 132H43C42.4477 132 42 132.448 42 133V135C42 135.552 42.4477 136 43 136H57C57.5523 136 58 135.552 58 135V133C58 132.448 57.5523 132 57 132Z" fill="white"/>
<path d="M45 140.5C45.8284 140.5 46.5 139.828 46.5 139C46.5 138.172 45.8284 137.5 45 137.5C44.1716 137.5 43.5 138.172 43.5 139C43.5 139.828 44.1716 140.5 45 140.5Z" fill="white"/>
<path d="M50 140.5C50.8284 140.5 51.5 139.828 51.5 139C51.5 138.172 50.8284 137.5 50 137.5C49.1716 137.5 48.5 138.172 48.5 139C48.5 139.828 49.1716 140.5 50 140.5Z" fill="white"/>
<path d="M55 140.5C55.8284 140.5 56.5 139.828 56.5 139C56.5 138.172 55.8284 137.5 55 137.5C54.1716 137.5 53.5 138.172 53.5 139C53.5 139.828 54.1716 140.5 55 140.5Z" fill="white"/>
<path d="M150 145L165 130" stroke="#10B981" stroke-width="3"/>
<path d="M160 130H165V135" stroke="#10B981" stroke-width="3" stroke-linecap="round" stroke-linejoin="round"/>
</svg>
